<?xml version="1.0" encoding="utf-8"?>
<!-- Generator: Adobe Illustrator 21.0.0, SVG Export Plug-In . SVG Version: 6.00 Build 0)  -->
<svg version="1.2" baseProfile="tiny" id="Layer_1" xmlns="http://www.w3.org/2000/svg" xmlns:xlink="http://www.w3.org/1999/xlink"
	 x="0px" y="0px" viewBox="0 0 302.2 128.2" xml:space="preserve">
<polygon fill="#004C98" points="-1102.8,-375.9 -1102.8,-376 -1102.9,-376 "/>
<polygon fill="#00539B" points="-1028.7,-675.3 -1028.6,-675.3 -1028.6,-675.3 "/>
<g>
	<polygon fill="#FFFFFF" points="123.3,71.3 123.3,71.3 123.4,71.3 	"/>
	<polygon fill="#004C98" points="98.8,28.5 98.8,57.1 98.8,57.2 74,71.5 74,99.8 123.3,71.3 123.3,14.3 	"/>
	<polygon fill="#004C98" points="74,128.2 74,99.8 49.2,85.5 49.2,85.5 49.2,56.9 24.7,42.7 24.7,99.7 	"/>
	<polygon fill="#004C98" points="0,28.5 24.7,42.7 49.4,28.3 49.4,28.3 74.1,42.6 98.8,28.5 49.4,0 	"/>
	<path fill="#6F7A83" d="M179.5,18.6L179.5,18.6c0.1,0.3,1.8,11.5,1.8,11.5h-3.7C177.6,30,179.5,18.8,179.5,18.6 M176.9,33.5h5.1
		l1.2,5.9h4.7L182.6,16h-5.9l-5.6,23.4h4.7L176.9,33.5z M191.6,65.6l-4.7-17.2h-6.2v23.5h4.3l-0.1-17.6l4.7,17.6h6.1V48.4h-4.1
		L191.6,65.6z M225.6,65.6l-4.7-17.2h-6.2v23.5h4.3l-0.1-17.6l4.7,17.6h6.1V48.4h-4.1L225.6,65.6z M298.1,48.4l0.2,17.2l-4.7-17.2
		h-6.2v23.5h4.3l-0.1-17.6l4.7,17.6h6.1V48.4H298.1z M251.1,39.4h4.4V16h-7.2l-2.8,16.4L242.6,16h-7.2v23.5h4.4l-0.3-20.3l4,20.3
		h4.2l3.9-20.3L251.1,39.4z M158.2,71.8h4.4V61.2h7.5v-3.4h-7.5v-5.9h8v-3.4h-12.4V71.8z M173.4,46.8h4v-3.6h-4V46.8z M173.1,71.8
		h4.4V48.4h-4.4V71.8z M203.1,62.5c0,0,1.9-11.2,1.9-11.5h0.1c0,0.3,1.8,11.5,1.8,11.5H203.1z M202.2,48.4l-5.6,23.4h4.7l1.2-5.9
		h5.1l1.2,5.9h4.7l-5.3-23.4H202.2z M275.7,62.5c0,0,1.9-11.2,1.9-11.5h0.1c0,0.3,1.8,11.5,1.8,11.5H275.7z M274.8,48.4l-5.6,23.4
		h4.7l1.2-5.9h5.1l1.2,5.9h4.7l-5.3-23.4H274.8z M243.9,60.8c-0.3-0.3-0.7-0.6-1.1-1c-0.4-0.4-0.9-0.7-1.4-1.1c-0.5-0.4-1-0.7-1.5-1
		c-0.5-0.3-0.9-0.6-1.3-0.8c-0.3-0.2-0.7-0.4-1-0.7c-0.3-0.2-0.6-0.4-0.8-0.7c-0.2-0.3-0.4-0.5-0.5-0.9c-0.1-0.3-0.2-0.7-0.2-1.1
		c0-0.8,0.2-1.4,0.7-1.7c0.4-0.3,1-0.5,1.7-0.5c0.6,0,1.1,0.1,1.4,0.4c0.3,0.2,0.6,0.6,0.8,0.9c0.2,0.4,0.3,0.8,0.3,1.3
		c0,0.5,0,1,0,1.5h4.2c0-0.4,0-0.9,0-1.4c0-0.5-0.1-1.1-0.2-1.6c-0.1-0.6-0.3-1.1-0.6-1.7c-0.3-0.6-0.6-1.1-1.2-1.5
		c-0.5-0.4-1.2-0.8-1.9-1.1c-0.8-0.3-1.8-0.4-2.9-0.4c-2.3,0-4.1,0.5-5.2,1.6c-1.1,1.1-1.7,2.6-1.7,4.6c0,1.3,0.4,2.5,1.1,3.6
		c0.4,0.6,0.9,1.1,1.5,1.6c0.6,0.5,1.2,0.9,1.8,1.3c0.6,0.4,1.2,0.8,1.9,1.2c0.6,0.4,1.2,0.8,1.8,1.3c0.6,0.4,1,0.8,1.3,1.3
		c0.3,0.5,0.5,1.1,0.5,1.8c0,1.8-0.9,2.7-2.7,2.7c-1.1,0-1.8-0.4-2.2-1.1c-0.4-0.7-0.6-1.7-0.5-2.8v-1.4h-4.4v1.7c0,1,0.1,2,0.4,2.9
		c0.2,0.9,0.7,1.6,1.2,2.2c0.6,0.6,1.3,1.1,2.2,1.5c0.9,0.4,2,0.5,3.3,0.5c1.1,0,2-0.1,2.9-0.4c0.9-0.3,1.6-0.7,2.3-1.3
		c0.6-0.6,1.1-1.3,1.5-2.1c0.4-0.8,0.5-1.8,0.5-2.9c0-1-0.1-1.9-0.4-2.7C245.2,62.2,244.7,61.5,243.9,60.8 M163.2,39.4h4.4v-10
		l6.2-13.5H169l-2.1,5.3c-0.3,0.7-0.5,1.3-0.8,2c-0.3,0.7-0.5,1.5-0.6,2.4h-0.1c-0.1-0.6-0.2-1.2-0.4-1.8c-0.2-0.6-0.4-1.2-0.6-1.8
		l-2.5-6.2h-4.8l6.1,13.5V39.4z M190.9,39.4h4.4v-20h5.1V16h-14.6v3.4h5.1V39.4z M206.3,16h-4.4v23.4h4.4V16z M214.1,19.4h3.2
		c0.4,0,0.8,0,1.1,0.1c0.3,0.1,0.6,0.2,0.9,0.5c0.2,0.2,0.4,0.5,0.6,0.9c0.1,0.4,0.2,0.9,0.2,1.6c0,1.2-0.2,2-0.7,2.5
		c-0.5,0.5-1.1,0.8-1.8,0.8h-3.4V19.4z M216.8,29.3c0.6,0,1.2,0.1,1.8,0.3c0.4,0.1,0.7,0.3,0.9,0.6c0.2,0.3,0.3,0.6,0.4,1
		c0.1,0.4,0.2,0.8,0.2,1.2c0,0.4,0,0.8,0,1.1v1.4c0,0.5,0,1.1,0,1.6c0,0.6,0.1,1.1,0.1,1.6c0.1,0.5,0.2,1,0.3,1.3h4.8V39
		c-0.2-0.1-0.3-0.4-0.4-0.7c-0.1-0.4-0.2-0.8-0.3-1.3c-0.1-0.5-0.1-1-0.1-1.6c0-0.6,0-1.1-0.1-1.6c0-0.5,0-1,0-1.4v-0.8
		c0-1.1-0.2-2.1-0.7-2.8c-0.5-0.8-1.4-1.2-2.7-1.4v-0.1c0.7-0.1,1.3-0.3,1.8-0.7c0.5-0.4,0.8-0.8,1.1-1.3c0.3-0.5,0.5-1.1,0.5-1.7
		c0.1-0.6,0.1-1.3,0.1-1.9c0-1.1-0.2-2-0.5-2.7c-0.3-0.7-0.8-1.3-1.4-1.7c-0.6-0.4-1.3-0.7-2.1-0.9c-0.8-0.2-1.7-0.3-2.6-0.3h-8.3
		v23.4h4.4V29.3h0.8C215.5,29.3,216.1,29.3,216.8,29.3 M231.9,16h-4.4v23.4h4.4V16z M258,64.8l-2.9-16.4h-7.2v23.5h4.4l-0.3-20.3
		l4,20.3h4.2l3.9-20.3l-0.4,20.3h4.4V48.4h-7.2L258,64.8z M161.1,85.7h5.5c1.9,0,3.2,0.7,3.9,2c0.7,1.2,0.8,2.7,0.4,4.6
		c-0.3,1.4-0.8,2.7-1.6,3.9c-1.4,2.1-3.2,3.1-5.6,3.1h-5.5L161.1,85.7z M163.6,97.7c0.6,0,1.1-0.1,1.6-0.2c0.8-0.2,1.4-0.7,2-1.4
		c0.5-0.5,0.9-1.3,1.2-2.1c0.2-0.5,0.4-1,0.4-1.4c0.4-1.7,0.3-3-0.2-3.9c-0.5-0.9-1.4-1.4-2.9-1.4h-3.3l-2.2,10.4H163.6z
		 M181.7,90.9c0.2,0.5,0.3,1.1,0.3,1.7c0,0.5-0.1,1.2-0.3,2.2h-7.2c-0.2,1-0.1,1.8,0.2,2.4c0.3,0.6,0.9,0.9,1.9,0.9
		c0.9,0,1.6-0.3,2.3-0.9c0.4-0.3,0.7-0.7,0.9-1.2h1.6c-0.1,0.4-0.4,0.8-0.7,1.2c-0.3,0.4-0.7,0.8-1,1.1c-0.6,0.5-1.3,0.8-2.1,1
		c-0.4,0.1-0.9,0.1-1.4,0.1c-1.2,0-2.2-0.4-2.8-1.3c-0.7-0.9-0.8-2.1-0.5-3.8c0.3-1.6,1-2.9,2.1-3.9c1.1-1,2.3-1.5,3.7-1.5
		c0.7,0,1.3,0.2,1.9,0.5C181.1,90,181.5,90.4,181.7,90.9z M180.3,93.5c0.1-0.7,0.1-1.3-0.1-1.7c-0.3-0.8-1-1.2-2-1.2
		c-0.8,0-1.5,0.3-2.1,0.8c-0.6,0.5-1.1,1.3-1.3,2.1H180.3z M191.1,89.8c0.3,0.2,0.5,0.5,0.8,0.9l0.3-1.2h1.5l-1.9,9
		c-0.3,1.3-0.7,2.2-1.2,3c-1,1.3-2.4,2-4.3,2c-1.1,0-1.9-0.2-2.5-0.7c-0.6-0.5-0.9-1.2-0.7-2.2h1.7c0,0.4,0.1,0.8,0.3,1
		c0.3,0.4,0.8,0.6,1.7,0.6c1.3,0,2.2-0.5,2.8-1.3c0.3-0.5,0.7-1.5,0.9-2.8c-0.4,0.5-0.9,0.9-1.4,1.1c-0.5,0.2-1.2,0.4-1.9,0.4
		c-1.1,0-1.9-0.4-2.6-1.1c-0.6-0.8-0.8-2-0.4-3.8c0.4-1.7,1-2.9,2-3.9c1-0.9,2.1-1.4,3.2-1.4C189.9,89.2,190.6,89.4,191.1,89.8z
		 M189.2,90.7c-1.2,0-2.1,0.5-2.7,1.6c-0.4,0.6-0.6,1.3-0.8,2.3c-0.2,1.1-0.2,2,0.1,2.5c0.3,0.6,0.9,0.9,1.6,0.9
		c1.2,0,2.1-0.5,2.9-1.6c0.4-0.6,0.7-1.3,0.9-2.1c0.3-1.2,0.2-2.1-0.2-2.7S189.9,90.7,189.2,90.7z M188.2,85.4
		c0,0.4,0.1,0.7,0.2,0.9c0.3,0.4,0.8,0.5,1.5,0.5c0.7,0,1.2-0.2,1.6-0.5c0.2-0.2,0.4-0.5,0.6-0.9h0.9c-0.3,0.9-0.8,1.6-1.4,2
		c-0.6,0.4-1.3,0.6-2.2,0.6c-1.1,0-1.8-0.4-2.1-1.1c-0.2-0.4-0.2-0.9-0.1-1.5H188.2z M204.2,90.9c0.2,0.5,0.3,1.1,0.3,1.7
		c0,0.5-0.1,1.2-0.3,2.2H197c-0.2,1-0.1,1.8,0.2,2.4c0.3,0.6,0.9,0.9,1.9,0.9c0.9,0,1.6-0.3,2.3-0.9c0.4-0.3,0.7-0.7,0.9-1.2h1.6
		c-0.1,0.4-0.4,0.8-0.7,1.2c-0.3,0.4-0.7,0.8-1,1.1c-0.6,0.5-1.3,0.8-2.1,1c-0.4,0.1-0.9,0.1-1.4,0.1c-1.2,0-2.2-0.4-2.8-1.3
		c-0.7-0.9-0.8-2.1-0.5-3.8c0.3-1.6,1-2.9,2.1-3.9c1.1-1,2.3-1.5,3.7-1.5c0.7,0,1.3,0.2,1.9,0.5C203.6,90,204,90.4,204.2,90.9z
		 M202.8,93.5c0.1-0.7,0.1-1.3-0.1-1.7c-0.3-0.8-1-1.2-2-1.2c-0.8,0-1.5,0.3-2.1,0.8c-0.6,0.5-1.1,1.3-1.3,2.1H202.8z M208.2,89.4
		h1.6l-0.4,1.7c0.2-0.3,0.6-0.7,1.2-1.2c0.6-0.5,1.2-0.7,1.9-0.7c0,0,0.1,0,0.2,0c0.1,0,0.2,0,0.4,0l-0.4,1.8c-0.1,0-0.2,0-0.3,0
		c-0.1,0-0.2,0-0.3,0c-0.8,0-1.5,0.3-2.1,0.8c-0.6,0.5-0.9,1.2-1.1,1.9l-1.2,5.7h-1.7L208.2,89.4z M222.2,85.7h1.8l-1.4,6.6l8-6.6
		h2.5l-6.8,5.5l4.1,8.1H228l-3.3-6.8l-2.6,2.1l-1,4.7h-1.8L222.2,85.7z M239,93.3c0.4-0.1,0.7-0.2,0.9-0.5c0.1-0.1,0.2-0.4,0.2-0.6
		c0.1-0.6,0-1-0.3-1.2s-0.9-0.4-1.7-0.4c-0.9,0-1.5,0.2-2,0.7c-0.3,0.3-0.5,0.6-0.6,1.2H234c0.3-1.2,0.9-2.1,1.7-2.5
		c0.9-0.5,1.8-0.7,2.8-0.7c1.2,0,2.1,0.2,2.7,0.7s0.8,1.1,0.6,2.1l-1.2,5.7c0,0.2,0,0.3,0,0.4c0,0.1,0.2,0.2,0.4,0.2
		c0.1,0,0.2,0,0.3,0c0.1,0,0.2,0,0.3,0l-0.3,1.2c-0.3,0.1-0.5,0.1-0.6,0.1c-0.1,0-0.3,0-0.6,0c-0.6,0-0.9-0.2-1.1-0.6
		c-0.1-0.2-0.1-0.5-0.1-0.9c-0.4,0.4-1,0.8-1.7,1.2c-0.7,0.3-1.4,0.5-2.2,0.5c-0.9,0-1.6-0.3-2.1-0.8c-0.5-0.6-0.6-1.3-0.4-2.1
		c0.2-0.9,0.6-1.6,1.3-2.1c0.7-0.5,1.5-0.8,2.4-0.9L239,93.3z M235.8,98.2c0.6,0,1.2-0.1,1.8-0.4c1-0.5,1.6-1.2,1.9-2.2l0.3-1.3
		c-0.2,0.1-0.5,0.2-0.8,0.3c-0.3,0.1-0.7,0.1-1,0.2l-1,0.1c-0.6,0.1-1.1,0.2-1.4,0.4c-0.6,0.3-0.9,0.8-1.1,1.4
		c-0.1,0.5,0,0.9,0.3,1.1C234.9,98.1,235.3,98.2,235.8,98.2z M246.8,86.6h1.7l-0.6,2.8h1.6l-0.3,1.4h-1.6l-1.4,6.5
		c-0.1,0.3,0,0.6,0.2,0.7c0.1,0.1,0.3,0.1,0.6,0.1c0.1,0,0.2,0,0.3,0c0.1,0,0.2,0,0.3,0l-0.3,1.3c-0.2,0.1-0.4,0.1-0.6,0.1
		c-0.2,0-0.4,0-0.7,0c-0.8,0-1.3-0.2-1.5-0.6c-0.2-0.4-0.2-0.9-0.1-1.5l1.4-6.5h-1.3l0.3-1.4h1.3L246.8,86.6z M256.3,93.3
		c0.4-0.1,0.7-0.2,0.9-0.5c0.1-0.1,0.2-0.4,0.2-0.6c0.1-0.6,0-1-0.3-1.2c-0.4-0.3-0.9-0.4-1.7-0.4c-0.9,0-1.5,0.2-2,0.7
		c-0.3,0.3-0.5,0.6-0.6,1.2h-1.6c0.3-1.2,0.9-2.1,1.7-2.5c0.9-0.5,1.8-0.7,2.8-0.7c1.2,0,2.1,0.2,2.7,0.7c0.6,0.4,0.8,1.1,0.6,2.1
		l-1.2,5.7c0,0.2,0,0.3,0,0.4c0,0.1,0.2,0.2,0.4,0.2c0.1,0,0.2,0,0.3,0c0.1,0,0.2,0,0.3,0l-0.3,1.2c-0.3,0.1-0.5,0.1-0.6,0.1
		c-0.1,0-0.3,0-0.6,0c-0.6,0-0.9-0.2-1.1-0.6c-0.1-0.2-0.1-0.5-0.1-0.9c-0.4,0.4-1,0.8-1.7,1.2c-0.7,0.3-1.4,0.5-2.2,0.5
		c-0.9,0-1.6-0.3-2.1-0.8c-0.5-0.6-0.6-1.3-0.4-2.1c0.2-0.9,0.6-1.6,1.3-2.1c0.7-0.5,1.5-0.8,2.4-0.9L256.3,93.3z M253,98.2
		c0.6,0,1.2-0.1,1.8-0.4c1-0.5,1.6-1.2,1.9-2.2l0.3-1.3c-0.2,0.1-0.5,0.2-0.8,0.3s-0.7,0.1-1,0.2l-1,0.1c-0.6,0.1-1.1,0.2-1.4,0.4
		c-0.6,0.3-0.9,0.8-1.1,1.4c-0.1,0.5,0,0.9,0.3,1.1C252.2,98.1,252.5,98.2,253,98.2z M263.2,89.4h1.6l-0.4,1.7
		c0.2-0.3,0.6-0.7,1.2-1.2c0.6-0.5,1.2-0.7,1.9-0.7c0,0,0.1,0,0.2,0c0.1,0,0.2,0,0.4,0l-0.4,1.8c-0.1,0-0.2,0-0.3,0
		c-0.1,0-0.2,0-0.3,0c-0.8,0-1.5,0.3-2.1,0.8c-0.6,0.5-0.9,1.2-1.1,1.9l-1.2,5.7h-1.7L263.2,89.4z"/>
</g>
</svg>
