<?xml version="1.0" encoding="UTF-8"?><svg id="Layer_2" xmlns="http://www.w3.org/2000/svg" viewBox="0 0 1199.5 443.85"><defs><style>.cls-1{fill:#f8f3ea;}.cls-2{fill:#e92427;}</style></defs><g id="Layer_1-2"><polygon class="cls-2" points="0 443.85 1199.5 443.85 1199.5 71.01 0 152.25 0 443.85"/><polygon class="cls-2" points="0 81.25 0 128.1 1199.5 46.85 1199.5 0 0 81.25"/><path class="cls-1" d="m105.14,209.14h104.8v26.4h-72v32.4h62.8v27.2h-62.8v54h-32.8v-140Z"/><path class="cls-1" d="m340.12,209.14v27.6h-42.8v112.4h-32.8v-112.4h-42.8v-27.6h118.4Z"/><path class="cls-1" d="m407.11,208.64h65.8c32.8,0,49.2,19.4,49.2,49.4,0,32-20,49.4-53,49.4h-29.2v41.2h-32.8v-140Zm32.8,27.6v44.6h28c13.6,0,21.8-8,21.8-23.2,0-12-6.6-21.4-22-21.4h-27.8Z"/><path class="cls-1" d="m580.5,246.64c35,0,52.2,16.2,52.2,52.2s-18,52.6-52.2,52.6-52.2-17-52.2-52.6,19.4-52.2,52.2-52.2Zm0,23.6c-15.8,0-22.4,8.2-22.4,28.8s7,29.2,22.4,29.2,22.2-8.4,22.2-29.2-6.6-28.8-22.2-28.8Z"/><path class="cls-1" d="m643.55,249.24h26.2l2.6,19.8c6.8-14.6,19.8-22.8,35.6-22.4l.2,30c-22.2-1.8-32.8,11.2-33,32.6v39.4h-31.6v-99.4Z"/><path class="cls-1" d="m732.17,249.24v-28.2h30.8v28.2h26.6v23h-26.6v40.2c0,11.6,5.2,15.8,14,15.8,4.6,0,8.4-.8,12.2-2.6l4.2,20c-7.4,4-15.2,5.8-24.6,5.8-20.6,0-36.6-9-36.6-36.2v-43h-15.2v-23h15.2Z"/><path class="cls-1" d="m815.41,249.24v-7.6c0-27.2,15.2-39,37.6-39,7.8,0,17.8,1.6,23.4,5.4l-5.4,20.6c-3.4-2-7-2.8-11.4-2.8-8.8,0-13.4,4.6-13.4,16.4v7h26v23h-26v76.4h-30.8v-76.4h-16.2v-23h16.2Z"/><path class="cls-1" d="m930.7,246.64c35,0,52.2,16.2,52.2,52.2s-18,52.6-52.2,52.6-52.2-17-52.2-52.6,19.4-52.2,52.2-52.2Zm-21.2-41.8c10.6,0,16.6,4.8,16.6,14.8s-6,15-16.6,15-16.6-4.8-16.6-15,6.2-14.8,16.6-14.8Zm21.2,65.4c-15.8,0-22.4,8.2-22.4,28.8s7,29.2,22.4,29.2,22.2-8.4,22.2-29.2-6.6-28.8-22.2-28.8Zm21-65.4c10.6,0,16.6,4.8,16.6,14.8s-6,15-16.6,15-16.8-4.8-16.8-15,6.2-14.8,16.8-14.8Z"/><path class="cls-1" d="m1022.96,349.04l-39.2-99.8h32.6l23.2,66.2,22.4-66.2h32.4l-46.2,117.8c-7.8,19.6-22.4,25.6-41,25.6-8.6,0-14.6-1.2-21.4-3.8l3.2-22.6c5.2,2.2,9.6,3.2,14.4,3.2,7,0,13.6-2.8,17-12.6l2.6-7.8Z"/></g></svg>