<?xml version="1.0" encoding="UTF-8"?><svg id="Layer_2" xmlns="http://www.w3.org/2000/svg" viewBox="0 0 1314.6 639.94"><defs><style>.cls-1{fill:#f8f3ea;}.cls-2{fill:#e92427;}.cls-3{fill:#4f4639;}</style></defs><g id="Layer_1-2"><polygon class="cls-2" points="148.15 377.27 1167.73 377.27 1167.73 60.36 148.15 129.41 148.15 377.27"/><polygon class="cls-2" points="148.15 69.06 148.15 108.89 1167.73 39.82 1167.73 0 148.15 69.06"/><path class="cls-1" d="m237.52,177.77h89.08v22.44h-61.2v27.54h53.38v23.12h-53.38v45.9h-27.88v-119Z"/><path class="cls-1" d="m437.26,177.77v23.46h-36.38v95.54h-27.88v-95.54h-36.38v-23.46h100.64Z"/><path class="cls-1" d="m494.2,177.34h55.93c27.88,0,41.82,16.49,41.82,41.99,0,27.2-17,41.99-45.05,41.99h-24.82v35.02h-27.88v-119Zm27.88,23.46v37.91h23.8c11.56,0,18.53-6.8,18.53-19.72,0-10.2-5.61-18.19-18.7-18.19h-23.63Z"/><path class="cls-1" d="m641.59,209.64c29.75,0,44.37,13.77,44.37,44.37s-15.3,44.71-44.37,44.71-44.37-14.45-44.37-44.71,16.49-44.37,44.37-44.37Zm0,20.06c-13.43,0-19.04,6.97-19.04,24.48s5.95,24.82,19.04,24.82,18.87-7.14,18.87-24.82-5.61-24.48-18.87-24.48Z"/><path class="cls-1" d="m695.17,211.85h22.27l2.21,16.83c5.78-12.41,16.83-19.38,30.26-19.04l.17,25.5c-18.87-1.53-27.88,9.52-28.05,27.71v33.49h-26.86v-84.49Z"/><path class="cls-1" d="m770.5,211.85v-23.97h26.18v23.97h22.61v19.55h-22.61v34.17c0,9.86,4.42,13.43,11.9,13.43,3.91,0,7.14-.68,10.37-2.21l3.57,17c-6.29,3.4-12.92,4.93-20.91,4.93-17.51,0-31.11-7.65-31.11-30.77v-36.55h-12.92v-19.55h12.92Z"/><path class="cls-1" d="m841.25,211.85v-6.46c0-23.12,12.92-33.15,31.96-33.15,6.63,0,15.13,1.36,19.89,4.59l-4.59,17.51c-2.89-1.7-5.95-2.38-9.69-2.38-7.48,0-11.39,3.91-11.39,13.94v5.95h22.1v19.55h-22.1v64.94h-26.18v-64.94h-13.77v-19.55h13.77Z"/><path class="cls-1" d="m939.26,209.64c29.75,0,44.37,13.77,44.37,44.37s-15.3,44.71-44.37,44.71-44.37-14.45-44.37-44.71,16.49-44.37,44.37-44.37Zm-18.02-35.53c9.01,0,14.11,4.08,14.11,12.58s-5.1,12.75-14.11,12.75-14.11-4.08-14.11-12.75,5.27-12.58,14.11-12.58Zm18.02,55.59c-13.43,0-19.04,6.97-19.04,24.48s5.95,24.82,19.04,24.82,18.87-7.14,18.87-24.82-5.61-24.48-18.87-24.48Zm17.85-55.59c9.01,0,14.11,4.08,14.11,12.58s-5.1,12.75-14.11,12.75-14.28-4.08-14.28-12.75,5.27-12.58,14.28-12.58Z"/><path class="cls-1" d="m1017.68,296.68l-33.32-84.83h27.71l19.72,56.27,19.04-56.27h27.54l-39.27,100.13c-6.63,16.66-19.04,21.76-34.85,21.76-7.31,0-12.41-1.02-18.19-3.23l2.72-19.21c4.42,1.87,8.16,2.72,12.24,2.72,5.95,0,11.56-2.38,14.45-10.71l2.21-6.63Z"/><path class="cls-3" d="m129.05,481.47h37.73v9.5h-25.92v11.67h22.61v9.79h-22.61v19.44h-11.81v-50.4Z"/><path class="cls-3" d="m213.18,481.47v9.94h-15.41v40.47h-11.81v-40.47h-15.41v-9.94h42.63Z"/><path class="cls-3" d="m235.2,506.6c0-18.29,8.21-26.14,24.55-26.14,9.94,0,16.34,3.17,19.66,10.73l-9.43,5.04c-2.3-4.46-5.11-6.05-10.3-6.05-8.14,0-12.6,3.67-12.6,16.49s4.54,16.85,12.74,16.85c4.97,0,10.08-2.45,10.59-9.5v-.58h-10.51v-8.79h21.17v27.22h-8.35l-.72-6.19c-2.66,4.46-7.71,7.2-14.33,7.2-14.04,0-22.46-8.42-22.46-26.28Z"/><path class="cls-3" d="m319.8,523.95h-19.44l-2.52,7.92h-11.74l17.06-50.4h14.26l17.07,50.4h-12.1l-2.59-7.92Zm-16.71-9h13.97l-6.98-22.03-6.99,22.03Z"/><path class="cls-3" d="m329.12,481.47h13.03l11.3,21.53,11.23-21.53h12.39l-18.07,31.9v18.51h-11.81v-18.79l-18.07-31.61Z"/><path class="cls-3" d="m394.9,531.87h-11.59v-50.4h24.55c11.38,0,17.07,6.48,17.07,16.56,0,7.42-3.1,12.53-8.5,15.05l9.07,18.79h-12.96l-7.63-16.56h-10.01v16.56Zm0-40.68v14.69h10.8c4.68,0,7.49-2.59,7.49-7.56,0-4.18-2.16-7.13-7.27-7.13h-11.02Z"/><path class="cls-3" d="m439.32,465.41c3.96,0,6.19,1.73,6.19,5.4s-2.23,5.4-6.19,5.4-6.34-1.73-6.34-5.4,2.38-5.4,6.34-5.4Zm-5.98,16.06h11.81v50.4h-11.81v-50.4Z"/><path class="cls-3" d="m466.61,500.19l.43,31.68h-10.73v-50.4h12.6l16.06,36.94,15.91-36.94h12.96v50.4h-11.16l.5-32.47-14.19,32.47h-8.42l-13.97-31.68Z"/><path class="cls-3" d="m525.19,481.47h38.67v9.29h-27.15v11.02h23.47v9.36h-23.47v11.45h27.87v9.29h-39.39v-50.4Z"/><path class="cls-3" d="m583.99,499.9l.29,31.97h-11.16v-50.4h9.29l24.62,33.63-.29-33.63h11.23v50.4h-10.37l-23.62-31.97Z"/><path class="cls-3" d="m629.25,481.47h11.81l-.07,23.62,18.79-23.62h13.9l-18.65,22.39,18.72,28.01h-14.19l-12.6-19.44-5.9,6.77v12.67h-11.81v-50.4Z"/><path class="cls-3" d="m712.27,481.47h11.74v29.88c0,15.12-8.28,21.53-22.18,21.53s-22.39-6.62-22.39-21.53v-29.88h11.81v30.53c0,7.63,3.96,11.16,10.51,11.16s10.51-3.53,10.51-11.16v-30.53Z"/><path class="cls-3" d="m772.53,522.08v9.79h-37.95v-50.4h11.88v40.61h26.07Z"/><path class="cls-3" d="m804.13,481.47l11.95,37.88,12.17-37.88h11.88l-17.21,50.4h-13.9l-17.28-50.4h12.38Z"/><path class="cls-3" d="m846.34,481.47h38.67v9.29h-27.15v11.02h23.47v9.36h-23.47v11.45h27.87v9.29h-39.39v-50.4Z"/><path class="cls-3" d="m909.91,506.6c0-18.29,8.21-26.14,24.55-26.14,9.94,0,16.35,3.17,19.66,10.73l-9.43,5.04c-2.3-4.46-5.11-6.05-10.3-6.05-8.14,0-12.6,3.67-12.6,16.49s4.54,16.85,12.75,16.85c4.97,0,10.08-2.45,10.58-9.5v-.58h-10.51v-8.79h21.17v27.22h-8.35l-.72-6.19c-2.66,4.46-7.7,7.2-14.33,7.2-14.04,0-22.47-8.42-22.47-26.28Z"/><path class="cls-3" d="m971.24,465.41c3.96,0,6.19,1.73,6.19,5.4s-2.23,5.4-6.19,5.4-6.34-1.73-6.34-5.4,2.38-5.4,6.34-5.4Zm-5.98,16.06h11.81v50.4h-11.81v-50.4Z"/><path class="cls-3" d="m999.83,531.87h-11.59v-50.4h24.55c11.38,0,17.07,6.48,17.07,16.56,0,7.42-3.1,12.53-8.5,15.05l9.07,18.79h-12.96l-7.63-16.56h-10.01v16.56Zm0-40.68v14.69h10.8c4.68,0,7.49-2.59,7.49-7.56,0-4.18-2.16-7.13-7.27-7.13h-11.02Z"/><path class="cls-3" d="m1044.24,465.41c3.96,0,6.19,1.73,6.19,5.4s-2.23,5.4-6.19,5.4-6.34-1.73-6.34-5.4,2.38-5.4,6.34-5.4Zm-5.98,16.06h11.81v50.4h-11.81v-50.4Z"/><path class="cls-3" d="m1067.01,544.98l3.89-3.96c1.44,2.16,3.1,3.46,5.83,3.46,2.02,0,3.6-.79,3.6-2.59,0-1.58-1.44-2.66-3.82-2.66-.58,0-1.08.07-1.66.14l-1.66-1.08,1.8-5.47c-7.63-.36-14.26-2.81-18.29-9.65l7.71-5.69c2.88,4.68,6.98,7.13,12.74,7.13,6.34,0,9.36-2.02,9.36-5.98,0-2.88-1.66-4.68-7.49-6.05l-4.97-1.15c-11.23-2.59-15.48-8.35-15.48-15.77,0-8.64,6.99-15.19,18.94-15.19,8.71,0,15.19,2.52,19.01,9.43l-8.06,5.33c-2.38-3.67-5.54-5.9-10.87-5.9-5.9,0-8.28,2.3-8.28,5.54,0,2.74,1.37,4.9,7.2,6.26l5.04,1.15c11.45,2.59,16.06,7.49,16.06,15.12,0,8.79-6.05,14.33-16.85,15.34l-1.01,2.74h.07c3.82.29,7.34,2.45,7.34,6.62,0,5.33-4.68,7.85-10.01,7.85-4.25,0-8.06-1.58-10.15-4.97Z"/><path class="cls-3" d="m1111.02,465.41c3.96,0,6.19,1.73,6.19,5.4s-2.23,5.4-6.19,5.4-6.34-1.73-6.34-5.4,2.38-5.4,6.34-5.4Zm-5.98,16.06h11.81v50.4h-11.81v-50.4Z"/><path class="cls-3" d="m1138.31,500.19l.43,31.68h-10.73v-50.4h12.6l16.06,36.94,15.91-36.94h12.96v50.4h-11.16l.5-32.47-14.19,32.47h-8.42l-13.97-31.68Z"/><path class="cls-3" d="m31.76,585.22c-2.38-3.67-5.54-5.9-10.87-5.9-5.9,0-8.28,2.3-8.28,5.54,0,2.74,1.37,4.9,7.2,6.26l5.04,1.15c11.45,2.59,16.06,7.49,16.06,15.12,0,9.72-7.34,15.48-20.45,15.48-8.5,0-16.06-2.23-20.45-9.72l7.71-5.69c2.88,4.68,6.98,7.13,12.75,7.13,6.34,0,9.36-2.02,9.36-5.98,0-2.88-1.66-4.68-7.49-6.05l-4.97-1.15c-11.23-2.59-15.48-8.35-15.48-15.77,0-8.64,6.98-15.19,18.94-15.19,8.71,0,15.19,2.52,19.01,9.43l-8.06,5.33Z"/><path class="cls-3" d="m49.03,571.47h38.67v9.29h-27.15v11.02h23.47v9.36h-23.47v11.45h27.87v9.29h-39.39v-50.4Z"/><path class="cls-3" d="m108.55,621.87h-11.59v-50.4h24.55c11.38,0,17.07,6.48,17.07,16.56,0,7.42-3.1,12.53-8.5,15.05l9.07,18.79h-12.96l-7.63-16.56h-10.01v16.56Zm0-40.68v14.69h10.8c4.68,0,7.49-2.59,7.49-7.56,0-4.18-2.16-7.13-7.27-7.13h-11.02Z"/><path class="cls-3" d="m157.41,590.19l.43,31.68h-10.73v-50.4h12.6l16.06,36.94,15.91-36.94h12.96v50.4h-11.16l.5-32.47-14.19,32.47h-8.42l-13.97-31.68Z"/><path class="cls-3" d="m244.65,613.95h-19.44l-2.52,7.92h-11.74l17.07-50.4h14.26l17.07,50.4h-12.1l-2.59-7.92Zm-16.71-9h13.97l-6.98-22.03-6.98,22.03Z"/><path class="cls-3" d="m253.97,571.47h13.03l11.3,21.53,11.23-21.53h12.38l-18.07,31.9v18.51h-11.81v-18.79l-18.07-31.61Z"/><path class="cls-3" d="m308.16,571.47h38.67v9.29h-27.15v11.02h23.47v9.36h-23.47v11.45h27.87v9.29h-39.39v-50.4Z"/><path class="cls-3" d="m384.47,585.22c-2.38-3.67-5.54-5.9-10.87-5.9-5.9,0-8.28,2.3-8.28,5.54,0,2.74,1.37,4.9,7.2,6.26l5.04,1.15c11.45,2.59,16.06,7.49,16.06,15.12,0,9.72-7.34,15.48-20.45,15.48-8.5,0-16.06-2.23-20.45-9.72l7.7-5.69c2.88,4.68,6.99,7.13,12.75,7.13,6.34,0,9.36-2.02,9.36-5.98,0-2.88-1.66-4.68-7.49-6.05l-4.97-1.15c-11.23-2.59-15.48-8.35-15.48-15.77,0-8.64,6.98-15.19,18.94-15.19,8.71,0,15.19,2.52,19.01,9.43l-8.06,5.33Z"/><path class="cls-3" d="m407.59,555.41c3.96,0,6.19,1.73,6.19,5.4s-2.23,5.4-6.19,5.4-6.34-1.73-6.34-5.4,2.38-5.4,6.34-5.4Zm-5.98,16.06h11.81v50.4h-11.81v-50.4Z"/><path class="cls-3" d="m443.73,571.47h23.69c11.81,0,17.71,6.98,17.71,17.79,0,11.52-7.2,17.79-19.08,17.79h-10.51v14.83h-11.81v-50.4Zm11.81,9.94v16.06h10.08c4.9,0,7.85-2.88,7.85-8.35,0-4.32-2.38-7.71-7.92-7.71h-10.01Z"/><path class="cls-3" d="m515.38,570.46c17.21,0,24.41,8.42,24.41,26.21s-7.92,26.21-24.48,26.21-24.41-8.5-24.41-26.28,7.92-26.14,24.48-26.14Zm-.07,42.84c8.28,0,12.53-4.18,12.53-16.71s-4.25-16.49-12.53-16.49-12.53,4.03-12.53,16.63,4.25,16.56,12.53,16.56Z"/><path class="cls-3" d="m560.38,621.87h-11.59v-50.4h24.55c11.38,0,17.07,6.48,17.07,16.56,0,7.42-3.1,12.53-8.5,15.05l9.07,18.79h-12.96l-7.63-16.56h-10.01v16.56Zm0-40.68v14.69h10.8c4.68,0,7.49-2.59,7.49-7.56,0-4.18-2.16-7.13-7.27-7.13h-11.02Z"/><path class="cls-3" d="m637.48,571.47v9.94h-15.41v40.47h-11.81v-40.47h-15.41v-9.94h42.63Z"/><path class="cls-3" d="m643.91,571.47h37.73v9.5h-25.92v11.67h22.61v9.79h-22.61v19.44h-11.81v-50.4Z"/><path class="cls-3" d="m709.79,570.46c17.21,0,24.41,8.42,24.41,26.21s-7.92,26.21-24.48,26.21-24.41-8.5-24.41-26.28,7.92-26.14,24.48-26.14Zm-7.63-15.05c3.82,0,5.98,1.73,5.98,5.33s-2.16,5.4-5.98,5.4-5.98-1.73-5.98-5.4,2.23-5.33,5.98-5.33Zm7.56,57.89c8.28,0,12.53-4.18,12.53-16.71s-4.25-16.49-12.53-16.49-12.53,4.03-12.53,16.63,4.25,16.56,12.53,16.56Zm7.63-57.89c3.82,0,5.98,1.73,5.98,5.33s-2.16,5.4-5.98,5.4-6.05-1.73-6.05-5.4,2.23-5.33,6.05-5.33Z"/><path class="cls-3" d="m735.11,571.47h13.03l11.3,21.53,11.23-21.53h12.38l-18.07,31.9v18.51h-11.81v-18.79l-18.07-31.61Z"/><path class="cls-3" d="m801.13,571.47h13.03l11.3,21.53,11.23-21.53h12.38l-18.07,31.9v18.51h-11.81v-18.79l-18.07-31.61Z"/><path class="cls-3" d="m874.4,570.46c17.21,0,24.41,8.42,24.41,26.21s-7.92,26.21-24.48,26.21-24.41-8.5-24.41-26.28,7.92-26.14,24.48-26.14Zm-7.63-15.05c3.82,0,5.98,1.73,5.98,5.33s-2.16,5.4-5.98,5.4-5.98-1.73-5.98-5.4,2.23-5.33,5.98-5.33Zm7.56,57.89c8.28,0,12.53-4.18,12.53-16.71s-4.25-16.49-12.53-16.49-12.53,4.03-12.53,16.63,4.25,16.56,12.53,16.56Zm7.63-57.89c3.82,0,5.98,1.73,5.98,5.33s-2.16,5.4-5.98,5.4-6.05-1.73-6.05-5.4,2.23-5.33,6.05-5.33Z"/><path class="cls-3" d="m918.68,589.9l.29,31.97h-11.16v-50.4h9.29l24.63,33.63-.29-33.63h11.23v50.4h-10.37l-23.62-31.97Z"/><path class="cls-3" d="m963.94,571.47h38.67v9.29h-27.15v11.02h23.47v9.36h-23.47v11.45h27.87v9.29h-39.39v-50.4Z"/><path class="cls-3" d="m1050.4,571.47v9.94h-15.41v40.47h-11.81v-40.47h-15.41v-9.94h42.63Z"/><path class="cls-3" d="m1062.81,555.41c3.96,0,6.19,1.73,6.19,5.4s-2.23,5.4-6.19,5.4-6.34-1.73-6.34-5.4,2.38-5.4,6.34-5.4Zm-5.98,16.06h11.81v50.4h-11.81v-50.4Z"/><path class="cls-3" d="m1090.1,590.19l.43,31.68h-10.73v-50.4h12.6l16.06,36.94,15.91-36.94h12.96v50.4h-11.16l.5-32.47-14.19,32.47h-8.42l-13.97-31.68Z"/><path class="cls-3" d="m1154.66,555.41c3.96,0,6.19,1.73,6.19,5.4s-2.23,5.4-6.19,5.4-6.34-1.73-6.34-5.4,2.38-5.4,6.34-5.4Zm-5.98,16.06h11.81v50.4h-11.81v-50.4Z"/><path class="cls-3" d="m1218.38,613.95h-19.44l-2.52,7.92h-11.74l17.07-50.4h14.26l17.07,50.4h-12.1l-2.59-7.92Zm-16.71-9h13.97l-6.98-22.03-6.99,22.03Z"/><path class="cls-3" d="m1244.96,610.57c3.96,0,6.26,2.02,6.26,5.98,0,3.74-2.3,5.83-6.26,5.83s-6.34-2.02-6.34-5.83,2.3-5.98,6.34-5.98Z"/><path class="cls-3" d="m1266.31,634.98l3.89-3.96c1.44,2.16,3.1,3.46,5.83,3.46,2.02,0,3.6-.79,3.6-2.59,0-1.58-1.44-2.66-3.82-2.66-.58,0-1.08.07-1.66.14l-1.66-1.08,1.8-5.47c-7.63-.36-14.26-2.81-18.29-9.65l7.71-5.69c2.88,4.68,6.98,7.13,12.74,7.13,6.34,0,9.36-2.02,9.36-5.98,0-2.88-1.66-4.68-7.49-6.05l-4.97-1.15c-11.23-2.59-15.48-8.35-15.48-15.77,0-8.64,6.99-15.19,18.94-15.19,8.71,0,15.19,2.52,19.01,9.43l-8.06,5.33c-2.38-3.67-5.54-5.9-10.87-5.9-5.9,0-8.28,2.3-8.28,5.54,0,2.74,1.37,4.9,7.2,6.26l5.04,1.15c11.45,2.59,16.06,7.49,16.06,15.12,0,8.79-6.05,14.33-16.85,15.34l-1.01,2.74h.07c3.82.29,7.34,2.45,7.34,6.62,0,5.33-4.68,7.85-10.01,7.85-4.25,0-8.06-1.58-10.15-4.97Z"/><path class="cls-3" d="m1308.33,610.57c3.96,0,6.26,2.02,6.26,5.98,0,3.74-2.3,5.83-6.26,5.83s-6.34-2.02-6.34-5.83,2.3-5.98,6.34-5.98Z"/></g></svg>