<?xml version="1.0" encoding="UTF-8"?>
<!DOCTYPE svg PUBLIC "-//W3C//DTD SVG 1.1//EN" "http://www.w3.org/Graphics/SVG/1.1/DTD/svg11.dtd">
<!-- Creator: CorelDRAW 2021 (64-Bit) -->
<svg xmlns="http://www.w3.org/2000/svg" xml:space="preserve" width="4.57906in" height="1.29629in" version="1.1" style="shape-rendering:geometricPrecision; text-rendering:geometricPrecision; image-rendering:optimizeQuality; fill-rule:evenodd; clip-rule:evenodd"
viewBox="0 0 2005.44 567.72"
 xmlns:xlink="http://www.w3.org/1999/xlink"
 xmlns:xodm="http://www.corel.com/coreldraw/odm/2003">
 <defs>
  <style type="text/css">
   <![CDATA[
    .fil0 {fill:#2D2C2C;fill-rule:nonzero}
   ]]>
  </style>
 </defs>
 <g id="Layer_x0020_1">
  <metadata id="CorelCorpID_0Corel-Layer"/>
  <g id="_1812190317296">
   <g id="Layer_1-2">
    <path class="fil0" d="M1996.28 218.51c2.42,0 4.75,-0.96 6.48,-2.68 1.73,-1.73 2.68,-4.04 2.68,-6.48l0 -82.38c0,-2.42 -0.96,-4.75 -2.68,-6.48 -1.73,-1.73 -4.04,-2.68 -6.48,-2.68l-64.06 0 0 -15.56c17.04,-3.08 31.41,-14.5 38.23,-30.43 6.82,-15.93 5.18,-34.2 -4.35,-48.67 -9.53,-14.47 -25.7,-23.15 -43.01,-23.15 -17.31,0 -33.48,8.71 -43.01,23.15 -9.53,14.47 -11.18,32.74 -4.35,48.67 6.82,15.93 21.19,27.35 38.23,30.43l0 15.56 -347.88 0 0 -15.56c17.04,-3.08 31.41,-14.5 38.23,-30.43 6.82,-15.93 5.18,-34.2 -4.35,-48.67 -9.56,-14.44 -25.73,-23.15 -43.04,-23.15 -17.31,0 -33.48,8.71 -43.01,23.15 -9.53,14.47 -11.18,32.74 -4.35,48.67 6.82,15.93 21.19,27.35 38.23,30.43l0 15.56 -64.09 0c-5.04,0 -9.16,4.09 -9.16,9.16l0 82.38c0,2.42 0.96,4.75 2.68,6.48 1.73,1.72 4.04,2.68 6.48,2.68l64.06 0 0 28.75 -64.06 0c-5.04,0 -9.16,4.09 -9.16,9.16l0 82.38c0,2.42 0.96,4.75 2.68,6.48 1.73,1.73 4.04,2.68 6.48,2.68l64.06 0 0 121.65 -19.14 0c-3.64,0.03 -6.9,2.23 -8.34,5.58l-18.32 43.12c-1.17,2.84 -0.88,6.05 0.82,8.6 1.67,2.55 4.54,4.12 7.59,4.12l141.51 0c3.08,0 5.92,-1.54 7.62,-4.12 1.7,-2.55 1.99,-5.79 0.8,-8.63l-18.32 -43.12c-1.43,-3.37 -4.75,-5.57 -8.42,-5.57l-19.11 0 0 -121.65 250.97 0 0 121.65 -19.04 0c-3.72,-0.03 -7.06,2.18 -8.52,5.57l-18.32 43.12c-1.19,2.84 -0.9,6.11 0.82,8.65 1.73,2.58 4.59,4.09 7.7,4.06l141.51 0c3.05,0 5.92,-1.57 7.59,-4.12 1.7,-2.55 2.02,-5.79 0.82,-8.6l-18.4 -43.12c-1.43,-3.37 -4.75,-5.57 -8.42,-5.57l-19.04 0 0 -121.65 64.07 0c2.42,0 4.75,-0.96 6.48,-2.68 1.72,-1.72 2.68,-4.03 2.68,-6.48l0 -82.38c0,-2.42 -0.96,-4.75 -2.68,-6.48 -1.73,-1.73 -4.04,-2.68 -6.48,-2.68l-64.07 0 0 -28.75 64.07 -0 0.08 0.03zm-82.38 251.08l-30.11 0 0 -121.65 30.11 0 0 121.65zm-347.83 0l0 -121.65 30.11 0 0 121.65 -30.11 0zm48.43 -222.33l0 -28.75 250.97 0 0 28.75 -250.97 0zm-48.43 0l0 -28.75 30.11 0 0 28.75 -30.11 0zm347.83 0l-30.11 0 0 -28.75 30.11 0 0 28.75 0 0zm45.77 -111.14l-71.13 64.06 -70.38 0 71.13 -64.06 70.38 0zm-194.8 0l-71.13 64.06 -70.49 0 71.13 -64.06 70.49 0zm-272.03 64.06l0 -64.06 76.81 0 -71.13 64.06 -5.68 0zm33.05 129.43l71.13 -64.06 69.75 0 -71.13 64.06 -69.75 0zm194.88 0l71.13 -64.06 70.01 0 -71.13 64.06 -70.01 0zm266.35 -64.06l0 64.06 -71.58 0 71.58 -64.06 0 0z"/>
   </g>
  </g>
  <g id="_1812190321424">
   <path class="fil0" d="M768.21 321.79l-27.58 0 10.93 -52.29 -36.99 -81.9 29.58 0 16.65 37.86c3.97,9.09 6.62,15.65 7.97,19.68 2.25,-3.97 4.84,-8.18 7.84,-12.62l12.65 -17.74 18.84 -27.18 32.05 0 -61.54 84.5 -10.4 49.7z"/>
   <path class="fil0" d="M899.84 292.18l-53.23 0 -16.24 29.61 -28.61 0 75.75 -134.19 31.21 0 21.68 134.19 -26.18 0 -4.37 -29.61zm-3.31 -22.49l-7.97 -53.98 -29.61 53.98 37.58 0z"/>
   <path class="fil0" d="M974.75 321.79l-27.58 0 28.11 -134.19 54.45 0c9.71,0 17.37,1.16 22.99,3.44 5.65,2.28 10.12,6.06 13.4,11.34 3.28,5.28 4.93,11.59 4.93,18.9 0,6.78 -1.31,13.37 -3.94,19.77 -2.62,6.43 -5.84,11.56 -9.65,15.4 -3.81,3.84 -7.9,6.75 -12.31,8.75 -4.37,1.97 -10.28,3.47 -17.74,4.53 -4.31,0.59 -12.43,0.91 -24.3,0.91l-17.65 0 -10.71 51.17zm15.4 -73.66l8.5 0c14.56,0 24.27,-0.91 29.14,-2.72 4.87,-1.81 8.71,-4.72 11.53,-8.72 2.78,-4 4.18,-8.4 4.18,-13.18 0,-3.22 -0.72,-5.84 -2.16,-7.9 -1.44,-2.06 -3.43,-3.56 -6.03,-4.5 -2.59,-0.94 -8.37,-1.41 -17.34,-1.41l-19.77 0 -8.06 38.42z"/>
   <polygon class="fil0" points="1071.05,321.79 1099.17,187.6 1126.72,187.6 1098.64,321.79 "/>
   <polygon class="fil0" points="1201.66,321.79 1175.42,321.79 1170.45,209.68 1149.18,321.79 1124.28,321.79 1152.37,187.6 1191.72,187.6 1195.85,279.84 1238.05,187.6 1277.75,187.6 1253.29,321.79 1228.27,321.79 1251.61,210.46 "/>
   <path class="fil0" d="M98.08 501.56l-53.23 0 -16.24 29.61 -28.61 0 75.75 -134.19 31.21 0 21.68 134.19 -26.18 0 -4.37 -29.61zm-3.31 -22.49l-7.97 -53.98 -29.61 53.98 37.58 0z"/>
   <path class="fil0" d="M149.53 487.94l26.24 -1.37c0.37,8.34 1.81,13.96 4.31,16.87 4.03,4.75 11.46,7.12 22.33,7.12 9.03,0 15.59,-1.62 19.62,-4.87 4.03,-3.25 6.03,-7.15 6.03,-11.75 0,-3.97 -1.66,-7.34 -4.93,-10.09 -2.31,-2.03 -8.68,-5.31 -19.09,-9.81 -10.4,-4.53 -17.99,-8.31 -22.77,-11.34 -4.81,-3.03 -8.56,-6.97 -11.31,-11.81 -2.75,-4.84 -4.12,-10.5 -4.12,-16.96 0,-11.34 4.09,-20.74 12.27,-28.21 8.15,-7.47 19.99,-11.18 35.52,-11.18 15.74,0 27.93,3.69 36.55,11.09 8.65,7.4 13.4,17.24 14.24,29.52l-26.43 1.19c-0.66,-6.4 -3,-11.31 -6.97,-14.74 -3.93,-3.41 -9.81,-5.12 -17.55,-5.12 -7.62,0 -13.06,1.34 -16.31,4.03 -3.28,2.69 -4.9,6.09 -4.9,10.18 0,3.87 1.5,7.03 4.47,9.56 3,2.56 9.62,6.06 19.84,10.53 15.43,6.68 25.24,12.09 29.46,16.24 6.28,6.12 9.4,13.96 9.4,23.58 0,11.87 -4.68,21.99 -14.06,30.39 -9.37,8.4 -22.4,12.62 -39.11,12.62 -11.53,0 -21.52,-1.94 -29.99,-5.81 -8.44,-3.87 -14.4,-9.25 -17.9,-16.12 -3.47,-6.87 -5.09,-14.81 -4.84,-23.74zm10.87 79.4l4.31 -10.59 5.25 0.09c5.22,0 10.25,-0.72 15.03,-2.19 3.03,-0.94 5.03,-2 6.09,-3.25 1.03,-1.25 1.56,-2.56 1.56,-3.9 0,-1.78 -0.81,-3.28 -2.44,-4.53 -1.62,-1.25 -4.37,-1.87 -8.21,-1.87 -1.97,0 -4.72,0.28 -8.28,0.81l3.19 -9.09c4.4,-1.09 8.4,-1.66 12,-1.66 6.72,0 11.81,1.47 15.24,4.4 3.47,2.94 5.19,6.5 5.19,10.71 0,5.12 -2.69,9.59 -8.09,13.37 -7.43,5.37 -18.09,8.06 -31.92,8.06 -3.84,0 -6.81,-0.12 -8.9,-0.37z"/>
   <path class="fil0" d="M358.44 501.56l-53.23 0 -16.24 29.61 -28.61 0 75.75 -134.19 31.21 0 21.68 134.19 -26.18 0 -4.37 -29.61zm-3.31 -22.49l-7.97 -53.98 -29.61 53.98 37.58 0z"/>
   <polygon class="fil0" points="483.18,531.17 456.94,531.17 451.97,419.06 430.7,531.17 405.8,531.17 433.88,396.98 473.24,396.98 477.36,489.22 519.57,396.98 559.27,396.98 534.81,531.17 509.79,531.17 533.12,419.85 "/>
   <path class="fil0" d="M649.92 501.56l-53.23 0 -16.24 29.61 -28.61 0 75.75 -134.19 31.21 0 21.68 134.19 -26.18 0 -4.37 -29.61zm-3.31 -22.49l-7.97 -53.98 -29.61 53.98 37.58 0z"/>
   <path class="fil0" d="M701.36 487.94l26.24 -1.37c0.37,8.34 1.81,13.96 4.31,16.87 4.03,4.75 11.46,7.12 22.33,7.12 9.03,0 15.59,-1.62 19.62,-4.87 4.03,-3.25 6.03,-7.15 6.03,-11.75 0,-3.97 -1.66,-7.34 -4.93,-10.09 -2.31,-2.03 -8.68,-5.31 -19.09,-9.81 -10.4,-4.53 -17.99,-8.31 -22.77,-11.34 -4.81,-3.03 -8.56,-6.97 -11.31,-11.81 -2.75,-4.84 -4.12,-10.5 -4.12,-16.96 0,-11.34 4.09,-20.74 12.27,-28.21 8.15,-7.47 19.99,-11.18 35.52,-11.18 15.74,0 27.93,3.69 36.55,11.09 8.65,7.4 13.4,17.24 14.24,29.52l-26.43 1.19c-0.66,-6.4 -3,-11.31 -6.97,-14.74 -3.93,-3.41 -9.81,-5.12 -17.55,-5.12 -7.62,0 -13.06,1.34 -16.31,4.03 -3.28,2.69 -4.9,6.09 -4.9,10.18 0,3.87 1.5,7.03 4.47,9.56 3,2.56 9.62,6.06 19.84,10.53 15.43,6.68 25.24,12.09 29.46,16.24 6.28,6.12 9.4,13.96 9.4,23.58 0,11.87 -4.68,21.99 -14.06,30.39 -9.37,8.4 -22.4,12.62 -39.11,12.62 -11.53,0 -21.52,-1.94 -29.99,-5.81 -8.44,-3.87 -14.4,-9.25 -17.9,-16.12 -3.47,-6.87 -5.09,-14.81 -4.84,-23.74z"/>
   <polygon class="fil0" points="821.13,531.17 849.24,396.98 876.79,396.98 848.71,531.17 "/>
   <polygon class="fil0" points="981.5,531.17 955.85,531.17 919.59,441.02 900.72,531.17 875.07,531.17 903.19,396.98 928.83,396.98 965.19,486.76 983.97,396.98 1009.61,396.98 "/>
   <path class="fil0" d="M1009.86 531.17l28.11 -134.19 36.27 0c10.09,0 16.56,0.16 19.37,0.47 5.56,0.53 10.56,1.66 14.93,3.37 4.37,1.72 8.34,4.09 11.93,7.18 3.59,3.09 6.68,6.78 9.28,11.12 2.59,4.34 4.59,9.34 6,14.96 1.41,5.65 2.12,11.84 2.12,18.56 0,14.46 -2.78,27.27 -8.31,38.48 -5.53,11.18 -12.49,20.09 -20.87,26.68 -6.43,5.12 -14.71,8.9 -24.86,11.34 -5.75,1.34 -14.59,2.03 -26.52,2.03l-47.45 0zm32.08 -21.55l14.09 0c10.18,0 17.56,-0.63 22.12,-1.87 4.59,-1.25 8.78,-3.59 12.56,-7.03 5.47,-4.94 10.06,-11.53 13.81,-19.77 3.75,-8.25 5.62,-17.96 5.62,-29.14 0,-9.53 -1.56,-16.68 -4.66,-21.49 -3.09,-4.78 -6.9,-7.96 -11.46,-9.56 -3.19,-1.09 -8.84,-1.66 -17.03,-1.66l-16.09 0 -18.96 90.52z"/>
   <path class="fil0" d="M1233.05 501.56l-53.23 0 -16.24 29.61 -28.61 0 75.75 -134.19 31.21 0 21.68 134.19 -26.18 0 -4.37 -29.61zm-3.31 -22.49l-7.97 -53.98 -29.61 53.98 37.58 0z"/>
  </g>
 </g>
</svg>
