<?xml version="1.0" encoding="UTF-8"?><svg id="Layer_2" xmlns="http://www.w3.org/2000/svg" viewBox="0 0 1709.05 325.76"><defs><style>.cls-1{fill:#f8f3ea;}.cls-2{fill:#e92427;}.cls-3{fill:#2d2c2c;}</style></defs><g id="Layer_1-2"><path class="cls-3" d="m399.42,133.01h37.73v9.5h-25.92v11.67h22.61v9.79h-22.61v19.44h-11.81v-50.4Z"/><path class="cls-3" d="m483.55,133.01v9.94h-15.41v40.47h-11.81v-40.47h-15.41v-9.94h42.63Z"/><path class="cls-3" d="m505.57,158.14c0-18.29,8.21-26.14,24.55-26.14,9.94,0,16.34,3.17,19.66,10.73l-9.43,5.04c-2.3-4.46-5.11-6.05-10.3-6.05-8.14,0-12.6,3.67-12.6,16.49s4.54,16.85,12.74,16.85c4.97,0,10.08-2.45,10.59-9.5v-.58h-10.51v-8.79h21.17v27.22h-8.35l-.72-6.19c-2.66,4.46-7.71,7.2-14.33,7.2-14.04,0-22.46-8.42-22.46-26.28Z"/><path class="cls-3" d="m590.17,175.49h-19.44l-2.52,7.92h-11.74l17.06-50.4h14.26l17.07,50.4h-12.1l-2.59-7.92Zm-16.71-9h13.97l-6.98-22.03-6.99,22.03Z"/><path class="cls-3" d="m599.49,133.01h13.03l11.3,21.53,11.23-21.53h12.39l-18.07,31.9v18.51h-11.81v-18.79l-18.07-31.61Z"/><path class="cls-3" d="m665.27,183.41h-11.59v-50.4h24.55c11.38,0,17.07,6.48,17.07,16.56,0,7.42-3.1,12.53-8.5,15.05l9.07,18.79h-12.96l-7.63-16.56h-10.01v16.56Zm0-40.68v14.69h10.8c4.68,0,7.49-2.59,7.49-7.56,0-4.18-2.16-7.13-7.27-7.13h-11.02Z"/><path class="cls-3" d="m709.69,116.95c3.96,0,6.19,1.73,6.19,5.4s-2.23,5.4-6.19,5.4-6.34-1.73-6.34-5.4,2.38-5.4,6.34-5.4Zm-5.98,16.06h11.81v50.4h-11.81v-50.4Z"/><path class="cls-3" d="m736.98,151.73l.43,31.68h-10.73v-50.4h12.6l16.06,36.94,15.91-36.94h12.96v50.4h-11.16l.5-32.47-14.19,32.47h-8.42l-13.97-31.68Z"/><path class="cls-3" d="m795.56,133.01h38.67v9.29h-27.15v11.02h23.47v9.36h-23.47v11.45h27.87v9.29h-39.39v-50.4Z"/><path class="cls-3" d="m854.36,151.44l.29,31.97h-11.16v-50.4h9.29l24.62,33.63-.29-33.63h11.23v50.4h-10.37l-23.62-31.97Z"/><path class="cls-3" d="m899.62,133.01h11.81l-.07,23.62,18.79-23.62h13.9l-18.65,22.39,18.72,28.01h-14.19l-12.6-19.44-5.9,6.77v12.67h-11.81v-50.4Z"/><path class="cls-3" d="m982.64,133.01h11.74v29.88c0,15.12-8.28,21.53-22.18,21.53s-22.39-6.62-22.39-21.53v-29.88h11.81v30.53c0,7.63,3.96,11.16,10.51,11.16s10.51-3.53,10.51-11.16v-30.53Z"/><path class="cls-3" d="m1042.9,173.62v9.79h-37.95v-50.4h11.88v40.61h26.07Z"/><path class="cls-3" d="m1074.5,133.01l11.95,37.88,12.17-37.88h11.88l-17.21,50.4h-13.9l-17.28-50.4h12.38Z"/><path class="cls-3" d="m1116.71,133.01h38.67v9.29h-27.15v11.02h23.47v9.36h-23.47v11.45h27.87v9.29h-39.39v-50.4Z"/><path class="cls-3" d="m1180.28,158.14c0-18.29,8.21-26.14,24.55-26.14,9.94,0,16.35,3.17,19.66,10.73l-9.43,5.04c-2.3-4.46-5.11-6.05-10.3-6.05-8.14,0-12.6,3.67-12.6,16.49s4.54,16.85,12.75,16.85c4.97,0,10.08-2.45,10.58-9.5v-.58h-10.51v-8.79h21.17v27.22h-8.35l-.72-6.19c-2.66,4.46-7.7,7.2-14.33,7.2-14.04,0-22.47-8.42-22.47-26.28Z"/><path class="cls-3" d="m1241.61,116.95c3.96,0,6.19,1.73,6.19,5.4s-2.23,5.4-6.19,5.4-6.34-1.73-6.34-5.4,2.38-5.4,6.34-5.4Zm-5.98,16.06h11.81v50.4h-11.81v-50.4Z"/><path class="cls-3" d="m1270.2,183.41h-11.59v-50.4h24.55c11.38,0,17.07,6.48,17.07,16.56,0,7.42-3.1,12.53-8.5,15.05l9.07,18.79h-12.96l-7.63-16.56h-10.01v16.56Zm0-40.68v14.69h10.8c4.68,0,7.49-2.59,7.49-7.56,0-4.18-2.16-7.13-7.27-7.13h-11.02Z"/><path class="cls-3" d="m1314.61,116.95c3.96,0,6.19,1.73,6.19,5.4s-2.23,5.4-6.19,5.4-6.34-1.73-6.34-5.4,2.38-5.4,6.34-5.4Zm-5.98,16.06h11.81v50.4h-11.81v-50.4Z"/><path class="cls-3" d="m1337.38,196.52l3.89-3.96c1.44,2.16,3.1,3.46,5.83,3.46,2.02,0,3.6-.79,3.6-2.59,0-1.58-1.44-2.66-3.82-2.66-.58,0-1.08.07-1.66.14l-1.66-1.08,1.8-5.47c-7.63-.36-14.26-2.81-18.29-9.65l7.71-5.69c2.88,4.68,6.98,7.13,12.74,7.13,6.34,0,9.36-2.02,9.36-5.98,0-2.88-1.66-4.68-7.49-6.05l-4.97-1.15c-11.23-2.59-15.48-8.35-15.48-15.77,0-8.64,6.99-15.19,18.94-15.19,8.71,0,15.19,2.52,19.01,9.43l-8.06,5.33c-2.38-3.67-5.54-5.9-10.87-5.9-5.9,0-8.28,2.3-8.28,5.54,0,2.74,1.37,4.9,7.2,6.26l5.04,1.15c11.45,2.59,16.06,7.49,16.06,15.12,0,8.79-6.05,14.33-16.85,15.34l-1.01,2.74h.07c3.82.29,7.34,2.45,7.34,6.62,0,5.33-4.68,7.85-10.01,7.85-4.25,0-8.06-1.58-10.15-4.97Z"/><path class="cls-3" d="m1381.4,116.95c3.96,0,6.19,1.73,6.19,5.4s-2.23,5.4-6.19,5.4-6.34-1.73-6.34-5.4,2.38-5.4,6.34-5.4Zm-5.98,16.06h11.81v50.4h-11.81v-50.4Z"/><path class="cls-3" d="m1408.68,151.73l.43,31.68h-10.73v-50.4h12.6l16.06,36.94,15.91-36.94h12.96v50.4h-11.16l.5-32.47-14.19,32.47h-8.42l-13.97-31.68Z"/><path class="cls-3" d="m426.21,236.76c-2.38-3.67-5.54-5.9-10.87-5.9-5.9,0-8.28,2.3-8.28,5.54,0,2.74,1.37,4.9,7.2,6.26l5.04,1.15c11.45,2.59,16.06,7.49,16.06,15.12,0,9.72-7.34,15.48-20.45,15.48-8.5,0-16.06-2.23-20.45-9.72l7.71-5.69c2.88,4.68,6.98,7.13,12.75,7.13,6.34,0,9.36-2.02,9.36-5.98,0-2.88-1.66-4.68-7.49-6.05l-4.97-1.15c-11.23-2.59-15.48-8.35-15.48-15.77,0-8.64,6.98-15.19,18.94-15.19,8.71,0,15.19,2.52,19.01,9.43l-8.06,5.33Z"/><path class="cls-3" d="m443.48,223.01h38.67v9.29h-27.15v11.02h23.47v9.36h-23.47v11.45h27.87v9.29h-39.39v-50.4Z"/><path class="cls-3" d="m503,273.41h-11.59v-50.4h24.55c11.38,0,17.07,6.48,17.07,16.56,0,7.42-3.1,12.53-8.5,15.05l9.07,18.79h-12.96l-7.63-16.56h-10.01v16.56Zm0-40.68v14.69h10.8c4.68,0,7.49-2.59,7.49-7.56,0-4.18-2.16-7.13-7.27-7.13h-11.02Z"/><path class="cls-3" d="m551.86,241.73l.43,31.68h-10.73v-50.4h12.6l16.06,36.94,15.91-36.94h12.96v50.4h-11.16l.5-32.47-14.19,32.47h-8.42l-13.97-31.68Z"/><path class="cls-3" d="m639.1,265.49h-19.44l-2.52,7.92h-11.74l17.07-50.4h14.26l17.07,50.4h-12.1l-2.59-7.92Zm-16.71-9h13.97l-6.98-22.03-6.98,22.03Z"/><path class="cls-3" d="m648.42,223.01h13.03l11.3,21.53,11.23-21.53h12.38l-18.07,31.9v18.51h-11.81v-18.79l-18.07-31.61Z"/><path class="cls-3" d="m702.61,223.01h38.67v9.29h-27.15v11.02h23.47v9.36h-23.47v11.45h27.87v9.29h-39.39v-50.4Z"/><path class="cls-3" d="m778.92,236.76c-2.38-3.67-5.54-5.9-10.87-5.9-5.9,0-8.28,2.3-8.28,5.54,0,2.74,1.37,4.9,7.2,6.26l5.04,1.15c11.45,2.59,16.06,7.49,16.06,15.12,0,9.72-7.34,15.48-20.45,15.48-8.5,0-16.06-2.23-20.45-9.72l7.7-5.69c2.88,4.68,6.99,7.13,12.75,7.13,6.34,0,9.36-2.02,9.36-5.98,0-2.88-1.66-4.68-7.49-6.05l-4.97-1.15c-11.23-2.59-15.48-8.35-15.48-15.77,0-8.64,6.98-15.19,18.94-15.19,8.71,0,15.19,2.52,19.01,9.43l-8.06,5.33Z"/><path class="cls-3" d="m802.04,206.95c3.96,0,6.19,1.73,6.19,5.4s-2.23,5.4-6.19,5.4-6.34-1.73-6.34-5.4,2.38-5.4,6.34-5.4Zm-5.98,16.06h11.81v50.4h-11.81v-50.4Z"/><path class="cls-3" d="m838.18,223.01h23.69c11.81,0,17.71,6.98,17.71,17.79,0,11.52-7.2,17.79-19.08,17.79h-10.51v14.83h-11.81v-50.4Zm11.81,9.94v16.06h10.08c4.9,0,7.85-2.88,7.85-8.35,0-4.32-2.38-7.71-7.92-7.71h-10.01Z"/><path class="cls-3" d="m909.83,222c17.21,0,24.41,8.42,24.41,26.21s-7.92,26.21-24.48,26.21-24.41-8.5-24.41-26.28,7.92-26.14,24.48-26.14Zm-.07,42.84c8.28,0,12.53-4.18,12.53-16.71s-4.25-16.49-12.53-16.49-12.53,4.03-12.53,16.63,4.25,16.56,12.53,16.56Z"/><path class="cls-3" d="m954.83,273.41h-11.59v-50.4h24.55c11.38,0,17.07,6.48,17.07,16.56,0,7.42-3.1,12.53-8.5,15.05l9.07,18.79h-12.96l-7.63-16.56h-10.01v16.56Zm0-40.68v14.69h10.8c4.68,0,7.49-2.59,7.49-7.56,0-4.18-2.16-7.13-7.27-7.13h-11.02Z"/><path class="cls-3" d="m1031.93,223.01v9.94h-15.41v40.47h-11.81v-40.47h-15.41v-9.94h42.63Z"/><path class="cls-3" d="m1038.36,223.01h37.73v9.5h-25.92v11.67h22.61v9.79h-22.61v19.44h-11.81v-50.4Z"/><path class="cls-3" d="m1104.23,222c17.21,0,24.41,8.42,24.41,26.21s-7.92,26.21-24.48,26.21-24.41-8.5-24.41-26.28,7.92-26.14,24.48-26.14Zm-7.63-15.05c3.82,0,5.98,1.73,5.98,5.33s-2.16,5.4-5.98,5.4-5.98-1.73-5.98-5.4,2.23-5.33,5.98-5.33Zm7.56,57.89c8.28,0,12.53-4.18,12.53-16.71s-4.25-16.49-12.53-16.49-12.53,4.03-12.53,16.63,4.25,16.56,12.53,16.56Zm7.63-57.89c3.82,0,5.98,1.73,5.98,5.33s-2.16,5.4-5.98,5.4-6.05-1.73-6.05-5.4,2.23-5.33,6.05-5.33Z"/><path class="cls-3" d="m1129.56,223.01h13.03l11.3,21.53,11.23-21.53h12.38l-18.07,31.9v18.51h-11.81v-18.79l-18.07-31.61Z"/><path class="cls-3" d="m1195.58,223.01h13.03l11.3,21.53,11.23-21.53h12.38l-18.07,31.9v18.51h-11.81v-18.79l-18.07-31.61Z"/><path class="cls-3" d="m1268.85,222c17.21,0,24.41,8.42,24.41,26.21s-7.92,26.21-24.48,26.21-24.41-8.5-24.41-26.28,7.92-26.14,24.48-26.14Zm-7.63-15.05c3.82,0,5.98,1.73,5.98,5.33s-2.16,5.4-5.98,5.4-5.98-1.73-5.98-5.4,2.23-5.33,5.98-5.33Zm7.56,57.89c8.28,0,12.53-4.18,12.53-16.71s-4.25-16.49-12.53-16.49-12.53,4.03-12.53,16.63,4.25,16.56,12.53,16.56Zm7.63-57.89c3.82,0,5.98,1.73,5.98,5.33s-2.16,5.4-5.98,5.4-6.05-1.73-6.05-5.4,2.23-5.33,6.05-5.33Z"/><path class="cls-3" d="m1313.13,241.44l.29,31.97h-11.16v-50.4h9.29l24.63,33.63-.29-33.63h11.23v50.4h-10.37l-23.62-31.97Z"/><path class="cls-3" d="m1358.39,223.01h38.67v9.29h-27.15v11.02h23.47v9.36h-23.47v11.45h27.87v9.29h-39.39v-50.4Z"/><path class="cls-3" d="m1444.85,223.01v9.94h-15.41v40.47h-11.81v-40.47h-15.41v-9.94h42.63Z"/><path class="cls-3" d="m1457.26,206.95c3.96,0,6.19,1.73,6.19,5.4s-2.23,5.4-6.19,5.4-6.34-1.73-6.34-5.4,2.38-5.4,6.34-5.4Zm-5.98,16.06h11.81v50.4h-11.81v-50.4Z"/><path class="cls-3" d="m1484.55,241.73l.43,31.68h-10.73v-50.4h12.6l16.06,36.94,15.91-36.94h12.96v50.4h-11.16l.5-32.47-14.19,32.47h-8.42l-13.97-31.68Z"/><path class="cls-3" d="m1549.11,206.95c3.96,0,6.19,1.73,6.19,5.4s-2.23,5.4-6.19,5.4-6.34-1.73-6.34-5.4,2.38-5.4,6.34-5.4Zm-5.98,16.06h11.81v50.4h-11.81v-50.4Z"/><path class="cls-3" d="m1612.83,265.49h-19.44l-2.52,7.92h-11.74l17.07-50.4h14.26l17.07,50.4h-12.1l-2.59-7.92Zm-16.71-9h13.97l-6.98-22.03-6.99,22.03Z"/><path class="cls-3" d="m1639.41,262.11c3.96,0,6.26,2.02,6.26,5.98,0,3.74-2.3,5.83-6.26,5.83s-6.34-2.02-6.34-5.83,2.3-5.98,6.34-5.98Z"/><path class="cls-3" d="m1660.76,286.52l3.89-3.96c1.44,2.16,3.1,3.46,5.83,3.46,2.02,0,3.6-.79,3.6-2.59,0-1.58-1.44-2.66-3.82-2.66-.58,0-1.08.07-1.66.14l-1.66-1.08,1.8-5.47c-7.63-.36-14.26-2.81-18.29-9.65l7.71-5.69c2.88,4.68,6.98,7.13,12.74,7.13,6.34,0,9.36-2.02,9.36-5.98,0-2.88-1.66-4.68-7.49-6.05l-4.97-1.15c-11.23-2.59-15.48-8.35-15.48-15.77,0-8.64,6.99-15.19,18.94-15.19,8.71,0,15.19,2.52,19.01,9.43l-8.06,5.33c-2.38-3.67-5.54-5.9-10.87-5.9-5.9,0-8.28,2.3-8.28,5.54,0,2.74,1.37,4.9,7.2,6.26l5.04,1.15c11.45,2.59,16.06,7.49,16.06,15.12,0,8.79-6.05,14.33-16.85,15.34l-1.01,2.74h.07c3.82.29,7.34,2.45,7.34,6.62,0,5.33-4.68,7.85-10.01,7.85-4.25,0-8.06-1.58-10.15-4.97Z"/><path class="cls-3" d="m1702.78,262.11c3.96,0,6.26,2.02,6.26,5.98,0,3.74-2.3,5.83-6.26,5.83s-6.34-2.02-6.34-5.83,2.3-5.98,6.34-5.98Z"/><polygon class="cls-2" points="340.14 53.2 340.14 325.76 0 325.76 0 80.76 340.14 53.2"/><polygon class="cls-1" points="53.58 275.26 86.38 275.26 86.38 221.26 149.18 221.26 149.18 194.06 86.38 194.06 86.38 161.66 158.38 161.66 158.38 135.26 53.58 135.26 53.58 275.26"/><polygon class="cls-1" points="174.66 135.26 174.66 162.86 217.46 162.86 217.46 275.26 250.26 275.26 250.26 162.86 293.06 162.86 293.06 135.26 174.66 135.26"/><polygon class="cls-2" points="0 27.55 0 53.63 340.14 26.08 340.14 0 0 27.55"/></g></svg>